<svg width="16" height="25" viewBox="0 0 16 25" fill="none" xmlns="http://www.w3.org/2000/svg">
<path d="M2.87783 12.1798C2.87783 10.8213 2.87462 9.46289 2.8792 8.10447C2.8815 7.42934 3.16346 7.26022 3.76727 7.56914C4.66129 8.02695 5.545 8.50545 6.44659 8.94803C6.81085 9.12692 6.92799 9.37515 6.92524 9.76499C6.91217 12.0759 6.9312 14.387 6.90759 16.6981C6.90323 17.1172 7.06347 17.2625 7.43483 17.2664C7.84311 17.2709 8.25138 17.2664 8.65965 17.2579C9.0035 17.2502 9.12867 17.0913 9.12592 16.7288C9.10872 14.4181 9.12706 12.107 9.10827 9.79568C9.10483 9.36515 9.23182 9.11169 9.63322 8.91916C10.5245 8.49158 11.3896 8.01104 12.2694 7.55982C12.84 7.2675 13.1561 7.44685 13.1561 8.07219C13.1612 10.8045 13.1589 13.537 13.1493 16.2696C13.1481 16.4876 13.0576 16.7313 12.9397 16.919C11.4844 19.2185 10.021 21.513 8.54961 23.8023C8.17412 24.3888 7.84471 24.3851 7.46578 23.7928C6.0076 21.5137 4.54667 19.236 3.10294 16.9477C2.96764 16.7239 2.89346 16.469 2.88768 16.2082C2.86705 14.8657 2.87783 13.5227 2.87783 12.1798ZM12.2078 8.63729C11.5721 8.96712 11.0265 9.27377 10.4605 9.53518C10.1483 9.67998 10.0319 9.86228 10.0348 10.2114C10.052 12.2548 10.0433 14.2981 10.0433 16.3414V16.8736C10.6662 16.6626 11.2056 16.4553 11.7599 16.3005C12.1209 16.1998 12.2472 16.0339 12.2433 15.6481C12.2222 13.4802 12.2337 11.3119 12.2323 9.14375C12.2321 9.00713 12.2192 8.87029 12.2076 8.63729H12.2078ZM5.93631 16.8588C5.96198 16.7253 5.98789 16.6542 5.98789 16.5819C5.99079 14.3997 5.99033 12.2175 5.98651 10.0353C5.98651 9.92502 5.93906 9.75795 5.85952 9.71408C5.20711 9.35378 4.54209 9.01668 3.87799 8.67093C3.83787 8.76186 3.81449 8.78982 3.81449 8.81778C3.80991 11.1716 3.8044 13.5255 3.81266 15.8793C3.81266 15.9875 3.91215 16.158 4.00567 16.193C4.63103 16.4267 5.26763 16.6319 5.93631 16.8588ZM4.58702 17.3164L4.53842 17.4778C4.99827 18.2002 5.51108 18.8955 5.90192 19.6529C6.25151 20.3312 6.80581 20.6076 7.48527 20.6251C8.10214 20.6404 8.72315 20.5197 9.34071 20.4383C9.47 20.4212 9.63482 20.3444 9.70222 20.2424C10.3102 19.324 10.9 18.3938 11.4951 17.4673C11.4798 17.4171 11.4645 17.3669 11.4492 17.3166C9.15916 18.48 6.87183 18.4943 4.58702 17.3164ZM8.01228 22.9169L8.86207 21.5812H7.15929L8.01228 22.9169Z" fill="#F6921E"/>
<path d="M1.72609 5.13371V5.71563C1.72609 6.83992 1.72609 7.96399 1.72357 9.08806C1.72357 9.38584 1.60643 9.62839 1.27679 9.64203C0.947145 9.65566 0.801808 9.44744 0.801808 9.13102C0.801808 7.55415 0.79218 5.97704 0.817396 4.40062C0.820147 4.22831 0.986115 3.9835 1.14452 3.90053C3.31295 2.76396 5.4907 1.64534 7.67778 0.544688C7.86438 0.451034 8.18485 0.462173 8.37512 0.557872C10.5341 1.64443 12.6836 2.74903 14.8238 3.87166C14.9939 3.96076 15.2123 4.18808 15.2 4.33356C15.1846 4.51541 14.9884 4.74591 14.8103 4.83979C12.6829 5.95363 10.5497 7.05542 8.40102 8.12675C8.18141 8.23632 7.80501 8.21608 7.57875 8.10402C5.80697 7.22613 4.05423 6.31051 2.29483 5.40785C2.13093 5.32419 1.9645 5.2485 1.72609 5.13371ZM2.3393 4.35197C2.43512 4.41767 2.49106 4.46563 2.55501 4.49836C4.28461 5.38989 6.01329 6.28528 7.75457 7.15521C7.90977 7.23272 8.18325 7.19635 8.35059 7.11225C10.0201 6.27437 11.6789 5.4158 13.3395 4.56156C13.4445 4.50745 13.543 4.44085 13.6444 4.3797C13.6134 4.32515 13.6054 4.28605 13.5827 4.27446C11.7846 3.34565 9.98666 2.4148 8.18164 1.50009C8.07207 1.44462 7.87469 1.47736 7.75412 1.53828C6.01925 2.42026 4.29034 3.31406 2.56075 4.20649C2.4945 4.24013 2.4365 4.28719 2.3393 4.35197Z" fill="#2E3191"/>
</svg>
